<?xml version="1.0" encoding="UTF-8"?>
<svg version="1.1" viewBox="0 0 1420 992" width="1280" height="1280" xmlns="http://www.w3.org/2000/svg">
<path transform="translate(804,24)" d="m0 0h13l6 4 5 6 3 7v287l-4 8-8 7-4 1h-9l-10-5-42-42-4-9v-10l4-7 8-6 3-1h7l9 3 7 6 3 3-1-184-52 52-3 4h-2l-2 4-24 24h-2l-2 4h-2l-2 4-6 5-2 3h-2l-2 4-19 19-7 4h-9l-9-4-4-5-3-10 2-8 7-11 56-56 1-2h2l2-4 90-90z" fill="#2EAB97"/>
<path transform="translate(584,66)" d="m0 0h7l10 5 10 9 21 21v2l4 2 7 7 6 11v10l-6 9-6 4-4 1h-7l-10-4-7-7-2-1 1 3v181l4-4h2l2-4 73-73 5-6 6-5 7-8h2l2-4h2l2-4h2l2-4 8-7 9-4 9-1 8 3 7 8 2 4v9l-4 8-17 16-133 133-7 8-6 3h-13l-9-6-5-10v-289l4-8 6-5z" fill="#FB8F30"/>
<path transform="translate(741,195)" d="m0 0 8 1 6 4 5 6 2 4v9l-4 8-17 16-133 133-7 8-6 3h-13l-9-6-5-10v-8l7-11 6-7 5-4 20-20h2l2-4 4-2 2-4 73-73 5-6 6-5 7-8h2l2-4h2l2-4h2l2-4 8-7 9-4z" fill="#E3282D"/>
<path transform="translate(425,532)" d="m0 0 7 2 22 33 1 2 3-1 10-15 11-16 3-4 4-1h9v81l-9-1-1-1v-66l-7 9-7 10-13 19h-4l-11-16-14-20-3-2 1 6v60l-2 2h-7l-1-1v-79z" fill="#C8A483"/>
<path transform="translate(559,676)" d="m0 0 7 1 9 10 11 14 13 16 11 14 9 12 1-66 2-1 8 1v78l-1 1h-10l-5-5-8-9-22-28-14-17-5-6-1 65-6 1-3-1v-79z" fill="#CDAF91"/>
<path transform="translate(1270,530)" d="m0 0h11l12 3 12 7 7 8 5 10 2 8v14l-4 13-7 9-8 7-13 5-6 1h-11l-10-2-12-6-8-8-7-14-1-4v-18l4-11 6-8 9-8 12-5zm1 9-9 2-8 5-7 7-4 8-1 4v16l3 8 6 8 8 6 9 3h15l10-4 8-6 5-7 2-6 1-7v-8l-2-9-5-8-7-7-9-4z" fill="#C4A07D"/>
<path transform="translate(702,530)" d="m0 0h11l12 3 10 6 6 5 6 9 4 13v13l-3 11-6 10-9 8-8 4-13 3h-10l-13-3-10-6-8-8-6-12-1-4v-19l4-11 4-6 5-5 8-6 10-4zm1 9-9 2-8 5-7 7-4 8-1 4v16l3 8 4 6 8 7 10 4h16l11-4 9-8 5-10 1-7v-10l-3-10-4-6-7-7-9-4-7-1z" fill="#C4A27D"/>
<path transform="translate(1104,676)" d="m0 0h8l5 3 9 11 13 16 11 14 13 16 4 5v2h2l-1-5v-16l1-45h9l1 4-1 75-2 1-9-1-8-9-11-14-14-17-11-14-9-11-1 65-1 1h-6l-2-1-1-50v-28z" fill="#CBAC8C"/>
<path transform="translate(1038,530)" d="m0 0h14l12 3 9 4 1 5-1 4-6-1-7-3-5-1h-19l-10 4-5 5-5 7-3 9v16l4 9 7 8 6 4 7 2h17l9-3 3-3 1-19h-17l-4-1-1-8 5-2h23l4 1 1 15v11l-2 9-5 4-9 4-13 2h-9l-14-3-10-6-7-8-6-12-1-4v-19l5-13 9-10 9-6z" fill="#C8A887"/>
<path transform="translate(668,676)" d="m0 0 33 1 13 4 9 7 6 9 3 9v20l-4 11-7 9-9 6-8 3-6 1-18 1h-16l-5-1v-79zm11 8-9 1-1 1v63l1 1h15l14-2 9-4 8-6 5-10 1-5v-16l-4-11-9-8-9-3-10-1z" fill="#CAAB8B"/>
<path transform="translate(161,676)" d="m0 0h22l15 1 9 4 6 7 2 4v12l-4 7-8 7-5 1 5 10 17 26v2h-8l-5-3-10-15-10-16-1-1h-20v34l-2 1h-7l-1-1-1-77 1-2zm7 8-2 1v28h27l8-4 4-5v-10l-4-6-6-3z" fill="#C7A784"/>
<path transform="translate(232,532)" d="m0 0h22l14 1 9 4 6 7 2 5v11l-4 7-8 7-4 2 2 5 9 15 7 10 3 5v2h-8l-5-3-10-15-9-15v-2h-22l-1 34h-10v-79zm5 8-2 1v28l5 1 23-1 8-4 4-5 1-8-3-6-5-4-10-2z" fill="#CAAB8A"/>
<path transform="translate(97,532)" d="m0 0h27l15 1 8 3 8 9 2 7-1 9-6 8-6 5-4 2 2 5 10 16 7 10 2 5-1 1-10-1-7-10-14-22v-2h-22v33l-1 1h-9zm11 8-1 1-1 16v12h29l6-3 6-7v-7l-3-6-4-4-11-2z" fill="#C9AA89"/>
<path transform="translate(1302,676)" d="m0 0h49l2 1v6l-2 2h-39v25h37v8l-1 1-36 1v29h42l1 1v6l-12 1h-39l-3-1v-79z" fill="#CFB294"/>
<path transform="translate(1024,676)" d="m0 0h50l1 1v7l-1 1h-40v24l37 1v9l-1 1h-36v27l-1 2h43l1 1v6l-1 1h-49l-3-1-1-78z" fill="#D3B99F"/>
<path transform="translate(1106,532)" d="m0 0h50l1 1v7l-2 1h-39v24l37 1-1 9h-37v30h43l1 1v6l-38 1h-10l-6-2v-78z" fill="#CFB295"/>
<path transform="translate(928,532)" d="m0 0h50l1 1v7l-2 1h-39v24l37 1v9h-38v30h43l1 1v6l-1 1h-50l-2-1-1-76z" fill="#CDAF90"/>
<path transform="translate(87,676)" d="m0 0h9l5 8 13 31 9 21 8 19-1 2h-7l-4-4-9-22-1-1h-36l-7 15-5 11-2 1h-6l-1-4 9-21 11-26 11-25zm2 11-11 28-2 6 28 1 1-3-9-24-4-8z" fill="#C19B75"/>
<path transform="translate(341,674)" d="m0 0h12l15 4 4 4-1 6-3 1-11-4-5-1h-11l-6 3-3 3v11l5 4 9 3 16 4 8 4 5 6 2 4 1 8-2 10-6 8-5 4-9 3h-18l-13-3-5-3-1-5 2-4 11 3 14 2h7l9-3 4-5 1-2v-9l-4-6-7-3-19-4-10-6-5-7-1-3v-10l3-7 5-5 8-4z" fill="#C19B74"/>
<path transform="translate(485,676)" d="m0 0h9l5 8 12 28 8 19 10 24-1 2-9-1-4-8-6-15-2-3h-36l-5 10-6 14-2 2-6 1-2-1 1-4 11-28 7-15 10-23 4-8zm3 11-6 13-8 19v2l29 1 1-2-12-30-2-3z" fill="#C19A75"/>
<path transform="translate(348,532)" d="m0 0h8l4 7 9 20 13 30 9 21v3h-7l-3-1-4-8-7-17-1-1h-36l-5 10-6 15-2 2h-7l-1-4 9-21 13-30 9-21zm1 11-13 32v2l18 1h11l-1-7-9-23-3-5z" fill="#CCAD8E"/>
<path transform="translate(827,674)" d="m0 0h13l12 3 6 3 1 4-3 5-5-2-13-3h-8l-7 2-4 4-1 9 2 4 5 3 22 5 10 5 4 5 3 7v13l-3 6-5 6-10 5-5 1h-15l-14-3-6-4-1-3 5-5 11 4 5 1h15l8-3 4-5 1-3v-7l-4-7-7-3-18-4-9-4-6-7-2-5v-11l3-6 8-7z" fill="#C19B75"/>
<path transform="translate(35,530)" d="m0 0h10l13 3 6 4v6l-1 2-9-3-8-2h-13l-7 4-2 4v7l2 4 8 4 21 5 8 5 5 6 2 4 1 8-2 9-7 8-5 4-12 3h-12l-14-3-6-3-1-6 3-3 12 4 7 1h13l8-3 4-6 1-6-2-7-1-3-5-2-24-6-8-5-4-5-2-4-1-8 3-9 9-8z" fill="#C09A74"/>
<path transform="translate(1241,674)" d="m0 0h15l13 4 6 4-1 7-4 1-8-4-12-2-12 1-12 6-6 8-4 10v18l4 9 4 5 7 5 5 2 16 1 14-3 8-3 2 2v5l-6 5-10 3-7 1h-11l-13-3-9-5-5-4-6-9-4-10-1-6v-11l3-11 5-9 9-9 12-6z" fill="#C5A37F"/>
<path transform="translate(925,674)" d="m0 0h15l13 4 6 4-1 7-3 1-10-4-4-1h-18l-10 4-6 5-6 11-2 10 1 12 4 9 4 5 10 6 3 1h23l10-4h5l1 5-5 5-8 3-11 2h-10l-13-3-9-5-5-4-6-9-4-10-1-6v-10l3-12 5-9 9-9 12-6z" fill="#C09C75"/>
<path transform="translate(610,530)" d="m0 0h12l14 4 6 4 1 3-2 5-5-1-10-4-7-1h-9l-8 2-6 3-6 5-5 8-2 7v15l2 8 4 6 8 7 7 3 7 1h11l12-3 3-2h6v6l-6 5-16 4h-13l-12-3-10-6-8-9-5-11-1-4v-18l4-11 6-9 8-7 11-5z" fill="#C8A887"/>
<path transform="translate(1345,532)" d="m0 0h50l1 1v7l-10 1h-30l-1 26h36l1 1v7l-1 1h-36v35l-1 2h-8l-1-1z" fill="#CBAD8E"/>
<path transform="translate(238,676)" d="m0 0h58l2 2v6l-8 1h-17v71l-1 1-9-1-1-70-24-1-1-1v-7z" fill="#CEB193"/>
<path transform="translate(777,533)" d="m0 0h10l1 1v37l-1 34 39 1 1 5-1 1-21 1h-22l-6-2z" fill="#CDB092"/>
<path transform="translate(853,532)" d="m0 0 10 1v69l-1 3h38l2 2v5l-5 1h-42l-2-1z" fill="#D4BCA2"/>
<path transform="translate(486,532)" d="m0 0h9v81l-9-1-1-1v-66l-7 9-7 10-13 19-1-2 7-11 10-15 9-14 3-7-5 5-6 8-9 13-2 1 2-5 11-16 5-7z" fill="#D2B499"/>
<path transform="translate(985,677)" d="m0 0h10l1 1v77l-1 1h-9l-1-1z" fill="#CAAB8B"/>
<path transform="translate(188,533)" d="m0 0h9l1 1v78l-7 1-3-1-1-77z" fill="#D2B89D"/>
<path transform="translate(485,676)" d="m0 0 8 1v2l-3 1-2-1-1 7-10 24-7 15 1-1 3-1h32l2 4-4 1h-35l-9 21-4 7-4 1-2-1 1-4 11-28 7-15 10-23 4-8z" fill="#C48B6A"/>
<path transform="translate(978,536)" d="m0 0 1 4-2 1h-39v24l37 1v9h-38v30h43l1 2h-44l-1-1v-67h42z" fill="#FEFEFE"/>
<path transform="translate(677,844)" d="m0 0 7 1 5 5 8 11 5 4v-20h6l1 1v28l-1 1h-6l-5-5-11-12h-2l-1 16-6 1-1-1v-14z" fill="#FEFEFE"/>
<path transform="translate(495,845)" d="m0 0 8 1 10 12 6 7 1-20h7v29l-1 1h-7l-4-4-8-11-5-3-1 17-1 1h-5l-1-3z" fill="#FEFEFE"/>
<path transform="translate(1087,844)" d="m0 0 7 1 5 4 8 12 6 5-1-21 7 1v28l-1 1h-6l-5-5-10-11-3-1v15l-1 1h-6z" fill="#C09972"/>
<path transform="translate(559,676)" d="m0 0 4 1h-2l1 6 1 73-5 1-3-1v-79z" fill="#CBAD8D"/>
<path transform="translate(1045,844)" d="m0 0h14l7 3 4 5 1 3v9l-3 6-6 5-8 2h-7l-7-4-4-5-2-5 1-8 5-8zm4 3-6 5-2 4v9l3 5 7 3 7-1 6-7v-10l-6-7z" fill="#DDC9B5"/>
<path transform="translate(461,844)" d="m0 0h5l4 8 9 21v2h-5l-5-6-4-2h-6l-5 5-5 3-3-1 2-6 9-20z" fill="#F9F6F4"/>
<path transform="translate(940,844)" d="m0 0h6l3 4 8 20 2 4v3l-5-1-5-6-2-1h-7l-5 3-3 4-4 1-1-4 10-23z" fill="#F9F7F4"/>
<path transform="translate(792,844)" d="m0 0h20l6 4 4 5 1 7-2 8-5 5-4 2-14 1-6-2-1-4v-21zm8 3-3 3v20l2 2h10l6-5 1-2v-9l-3-6-7-3z" fill="#CDB092"/>
<path transform="translate(1270,530)" d="m0 0h11l12 3 12 7 7 8 5 10 2 8v14l-4 13-7 9-8 7-13 5-6 1h-11l-10-2-12-6-8-8 1-2 7 7 11 6 8 2h16l13-4 6-4 5-5 6-8 3-9v-18l-4-11-6-8-7-6-8-4-9-2h-13l-11 3-10 6-8 9-4 8-2 9v9l1 11-2-3-1-4v-18l4-11 6-8 9-8 12-5z" fill="#FEFEFE"/>
<path transform="translate(348,534)" d="m0 0h2v6l-14 33-11 25-7 14-5 1 1-5 16-36 13-31 3-6z" fill="#C48C6B"/>
<path transform="translate(838,845)" d="m0 0h8v22l2 4 7 1 4-2 1-2 1-23h6l1 1v19l-4 8-5 3-7 1-7-2-5-5-2-8z" fill="#FEFEFE"/>
<path transform="translate(702,530)" d="m0 0h11l12 3 10 6 6 5 6 9 4 13v13l-3 11-6 10-9 8-8 4-13 3h-10l-13-3-10-6-1-2 5 2 8 4 9 2h15l12-4 8-5 7-7 5-10 1-5v-16l-4-12-6-8-7-6-8-4-8-2h-14l-9 2-10 5-6 5-7 11-2 5-1 6v12l1 10-2-3-1-4v-19l4-11 4-6 5-5 8-6 10-4z" fill="#FEFEFE"/>
<path transform="translate(88,678)" d="m0 0h2l-1 8-13 31-4 8-5 13-8 17-2 2h-4l2-6 12-28 11-26 8-18z" fill="#C48D6B"/>
<path transform="translate(831,681)" d="m0 0 16 1 10 5-1 2-5-2-13-3h-8l-7 2-4 4-1 9 2 4 5 3 22 5 10 5 4 5 3 7v13l-3 6-5 6-10 5-5 1h-15l-14-3-5-3 3-1 9 3 8 1h14l11-4 6-5 3-6v-13l-4-8-7-5-16-4-13-4-6-6v-9l4-6 4-3z" fill="#FEFEFE"/>
<path transform="translate(343,681)" d="m0 0h13l10 3 5 4-3 1-11-4-5-1h-11l-6 3-3 3v11l5 4 9 3 16 4 8 4 5 6 2 4 1 8-2 10-6 8-5 4-9 3h-18l-13-3-5-3 1-2 12 4 7 1h14l10-3 8-7 3-7v-10l-4-8-6-5-7-3-21-5-6-4-3-5 1-9 5-6z" fill="#FEFEFE"/>
<path transform="translate(411,844)" d="m0 0h16l3 2-1 4-6-2h-9l-6 4-2 5v7l4 6 4 2h7l4-2 2-6-6-1-2-1v-2h11l1 1v10l-6 5h-15l-7-5-3-5-1-7 3-8 7-6z" fill="#C4A27E"/>
<path transform="translate(288,844)" d="m0 0h20v4h-14l-1 9h14v4l-13 2-1 8 17 1-1 3h-21l-1-1v-29z" fill="#C09B74"/>
<path transform="translate(34,537)" d="m0 0h14l10 3 5 5-9-3-8-2h-13l-7 4-2 4v7l2 4 8 4 21 5 8 5 5 6 2 4 1 8-2 9-7 8-5 4-12 3h-12l-14-3-6-3 1-2 12 4 7 1h13l10-3 8-6 3-5 1-4v-7l-3-9-7-6-12-4-15-3-7-4-3-4-1-6 3-8 7-5z" fill="#FEFEFE"/>
<path transform="translate(754,844)" d="m0 0h21v3l-15 1-1 9h14v4l-4 1h-11l1 8 1 1 15 1 1 3h-22l-1-2v-28z" fill="#C09B74"/>
<path transform="translate(899,843)" d="m0 0 11 1 3 5v2l-10-3-7 1-5 4-2 4v7l4 6 7 2 8-1 4-1-1 4-3 2h-15l-6-4-4-5-1-3v-7l3-6 4-5 4-2z" fill="#C9AA89"/>
<path transform="translate(486,532)" d="m0 0h5l-2 1-1 42v36h-3v-66l-7 9-7 10-13 19-1-2 7-11 10-15 9-14 3-7-5 5-6 8-9 13-2 1 2-5 11-16 5-7z" fill="#FEFEFE"/>
<path transform="translate(553,844)" d="m0 0h16l2 1v5h-3l-10-2-6 2-3 6v9l3 5 7 2 8-1 3-1 1 3-3 3h-16l-6-4-4-5v-12l5-8z" fill="#CDB091"/>
<path transform="translate(364,844)" d="m0 0h20v3l-15 1v9h13v4l-5 1h-9l1 8 1 1 14 1 1 3h-21l-1-2v-28z" fill="#C19A75"/>
<path transform="translate(587,844)" d="m0 0h20l1 3-15 1v8l2 1h11v4l-5 1h-9v9l16 1 1 3h-21l-1-1z" fill="#C09C75"/>
<path transform="translate(971,844)" d="m0 0h26l-1 3-6 2-1 19v6l-1 1h-6l-2-3v-24l-6-1z" fill="#CCAE8F"/>
<path transform="translate(1269,537)" d="m0 0h14l10 3 10 9 5 8 2 5 1 13-2 10-3 4 2-13v-8l-2-9-5-8-8-7-7-3-15-1-9 2-8 5-7 8-4 10v16l3 8 2 5-5-5-3-8v-18l6-12 4-5 9-6z" fill="#FEFEFE"/>
<path transform="translate(668,683)" d="m0 0h31l9 2 8 6 6 10 2 10v12l-3 10-4 6-8 7-8 3h-6l4-2 9-4 7-5 5-10 1-5v-16l-4-11-8-7-9-3-10-1h-11l-9 1v63l14 1v1h-15l-1-1-1-66z" fill="#FEFEFE"/>
<path transform="translate(702,537)" d="m0 0h13l10 3 10 9 5 8 2 5 1 14-2 10-5 8v-3l3-7 1-7v-10l-3-10-4-6-8-7-7-3-7-1h-8l-9 2-8 5-7 8-4 10v16l1 7-3-4-1-3v-17l4-10 9-10 6-4z" fill="#FEFEFE"/>
<path transform="translate(495,845)" d="m0 0h5l9 11 9 10 4 4v-24l3 1v27l-4-1-8-7-12-15-2-1 1 25h-5l-1-3z" fill="#C2926E"/>
<path transform="translate(938,567)" d="m0 0h36v7h-35l-1-1z" fill="#C09B74"/>
<path transform="translate(488,679)" d="m0 0h2l11 28 7 16-1 3-1-2h-35v2l-2-1 9-19 9-23zm0 8-6 13-8 19v2l29 1 1-2-12-30-2-3z" fill="#FEFEFE"/>
<path transform="translate(325,845)" d="m0 0h7l1 4-1 22 15 1v3h-20l-1-1-1-7z" fill="#FEFEFE"/>
<path transform="translate(91,678)" d="m0 0 2 2 6 18 10 24-1 2h-32l-4 1 2-6 10-23zm-2 9-11 28-2 6 28 1 1-3-9-24-4-8z" fill="#FEFEFE"/>
<path transform="translate(1035,711)" d="m0 0h35v7h-23v-2l-2-1-1 3h-8l-2-6z" fill="#C09B74"/>
<path transform="translate(658,844)" d="m0 0 3 1v29l-3 1-4-1-1-6v-23z" fill="#FEFEFE"/>
<path transform="translate(165,683)" d="m0 0h30l7 3 4 5 1 3v11l-4 5-5 3-15 2h-16l-2-1-1-7v-23zm3 1-2 1v28h27l8-4 4-5v-10l-4-6-6-3z" fill="#FEFEFE"/>
<path transform="translate(1013,845)" d="m0 0h7l1 1-1 28-4 1-4-1v-13z" fill="#FEFEFE"/>
<path transform="translate(330,712)" d="m0 0 17 4 12 3 8 5 3 5v10l-4 7-7 5-4 1h-14l-13-3-8-3 1-2 11 3 14 2h7l9-3 4-5 1-2v-9l-4-6-7-3-19-4-7-4z" fill="#FEFEFE"/>
<path transform="translate(1242,681)" d="m0 0h14l11 3 7 4-1 2-4-1-11-4-13-1-10 2-10 6-6 9-3 8v18l1 6-3-4-2-10 1-12 7-14 8-7 10-4z" fill="#FEFEFE"/>
<path transform="translate(351,534)" d="m0 0 2 2 5 15 11 27v3l-1-1h-35l-1 2 1-5 9-20 7-17zm-2 9-13 32v2l18 1h11l-1-7-9-23-3-5z" fill="#FEFEFE"/>
<path transform="translate(1039,537)" d="m0 0h13l12 3 9 4v2l-6-1-7-3-5-1h-19l-10 4-5 5-5 7-3 9v16l2 5-1 3-4-9v-16l4-10 6-8 7-6z" fill="#FEFEFE"/>
<path transform="translate(1241,674)" d="m0 0h15l13 4 6 4v5l-1-4-18-6h-15l-13 4-11 8-7 11-3 8v17l2 11-3-4-2-10v-11l3-11 5-9 9-9 12-6z" fill="#FEFEFE"/>
<path transform="translate(17,562)" d="m0 0 11 7 24 6 6 4 4 4 1 9-2 7-8 7-6 2h-12l-14-3-8-3 2-2 12 4 7 1h13l8-3 4-6 1-6-2-7-1-3-5-2-24-6-8-5-3-3z" fill="#FEFEFE"/>
<path transform="translate(814,710)" d="m0 0 5 2 10 3 18 4 6 4 4 7v8l-4 7-6 5-5 2h-15l-12-3-7-3 2-2 11 4 5 1h15l8-3 4-5 1-3v-7l-4-7-7-3-18-4-9-4z" fill="#FEFEFE"/>
<path transform="translate(925,674)" d="m0 0h15l13 4 6 4v5l-1-4-6-2-7-3-5-1h-15l-13 4-11 8-7 11-3 8v18l2 10-3-4-2-10v-10l3-12 5-9 9-9 12-6z" fill="#FEFEFE"/>
<path transform="translate(1116,845)" d="m0 0 3 1v28l-1 1h-6l-5-5-10-11-3-1v15l-2 1-1-4v-20l3 1 9 11 11 11 3 1-1-8z" fill="#FEFEFE"/>
<path transform="translate(928,681)" d="m0 0h9l10 2 11 5-1 2-6-2-10-3h-18l-10 4-6 5-6 11-2 10 1 12 1 6-3-4-2-13 2-12 5-9 4-5 10-6 5-2z" fill="#FEFEFE"/>
<path transform="translate(561,679)" d="m0 0 3 4 7 11 11 14 4 5-1 2-11-13-9-11-1 65-2-3z" fill="#FEFEFE"/>
<path transform="translate(235,539)" d="m0 0h32l5 3 5 6 1 10-4 7-6 4-10 2h-24v-31zm2 1-2 1v28l5 1 23-1 8-4 4-5 1-8-3-6-5-4-10-2z" fill="#FEFEFE"/>
<path transform="translate(612,537)" d="m0 0h9l10 2 10 5v2l-5-1-10-4-7-1h-9l-8 2-6 3-6 5-5 8-2 7v15l3 12-3-3-3-8v-17l4-10 7-9 11-6z" fill="#FEFEFE"/>
<path transform="translate(785,533)" d="m0 0 3 1v37l-1 34 39 1v1h-40l-1-36z" fill="#FEFEFE"/>
<path transform="translate(331,582)" d="m0 0 3 1h37l4 8 8 21h-2l-4-8-7-17-1-1h-36l-5 10-6 15-2 2-3-1 8-16z" fill="#FEFEFE"/>
<path transform="translate(706,845)" d="m0 0 3 1v28l-1 1h-6l-5-5-11-12h-2l-1 16h-2l-1-25 2-1 7 9 12 14 6 3-1-7z" fill="#FEFEFE"/>
<path transform="translate(840,846)" d="m0 0h4v19l3 5 4 2 6-1 3-3h2v-21l3-1 1 17-3 8-5 4h-10l-6-5-2-5z" fill="#C29F7A"/>
<path transform="translate(610,530)" d="m0 0h12l14 4 6 4v3l-8-5-10-3h-17l-11 4-9 6-7 8-4 8-2 10v9l1 11-2-3-1-4v-18l4-11 6-9 8-7 11-5z" fill="#FEFEFE"/>
<path transform="translate(107,539)" d="m0 0h30l5 2 6 7 1 3v8l-4 6-6 4-3 1-11 1h-19v-2l29-1 6-3 5-6v-7l-3-6-3-3-11-2h-21l-1 16h-1v-17z" fill="#FEFEFE"/>
<path transform="translate(1389,568)" d="m0 0h2v6h-36v-5z" fill="#C09B74"/>
<path transform="translate(411,844)" d="m0 0h16l3 2-1 4-6-2h-9l-6 4-2 5v7l1 4-3-2v-11-2l-2 5 1 8 6 7 7 2v1h-6l-7-5-3-5-1-7 3-8 7-6z" fill="#E9CFC4"/>
<path transform="translate(1038,530)" d="m0 0h14l12 3 9 4 1 5-8-5-12-4h-17l-10 3-10 6-7 8-5 11-1 4-1 17h-1v-19l5-13 9-10 9-6z" fill="#FEFEFE"/>
<path transform="translate(70,722)" d="m0 0 2 1-2 8-11 24-2 2h-4l2-6 12-28z" fill="#C68667"/>
<path transform="translate(474,723)" d="m0 0h32l2 4-4 1h-34l1-4z" fill="#C09B74"/>
<path transform="translate(1033,709)" d="m0 0 38 1v9l-1 1h-36v20l-2-3v-25zm2 2-1 2 2 5h8l1-3 2 2v1h23v-7z" fill="#FEFEFE"/>
<path transform="translate(1087,844)" d="m0 0 7 1 5 4 8 12 6 5-1-21 3 1v24l-4-2-8-8-9-11-4-2-1 27h-2z" fill="#FEFEFE"/>
<path transform="translate(71,726)" d="m0 0 1 2 35-1 3-1 8 16 4 11v2l6 1v1l-7-1-5-10-6-15-1-1h-36l-7 15-5 11-4 1 9-19z" fill="#FEFEFE"/>
<path transform="translate(1395,536)" d="m0 0 1 4-10 1h-30l-1 26h36l-2 2h-35l-1-29 1-1h41z" fill="#FEFEFE"/>
<path transform="translate(792,844)" d="m0 0h20l6 4 4 5 1 7-2 8-5 5-4 2-4-1 8-4 3-5v-10l-3-6-5-3h-17v23l2 4 9 2v1h-7l-6-2-1-4v-21z" fill="#FEFEFE"/>
<path transform="translate(508,726)" d="m0 0 2 2 11 27-2 1-4-8-6-15-2-3h-36l-5 10-6 14-4 2 10-23 3-6h35z" fill="#FEFEFE"/>
<path transform="translate(485,676)" d="m0 0 3 1-4 3-12 29-18 42-4 5 1-4 11-28 7-15 10-23 4-8z" fill="#FEFEFE"/>
<path transform="translate(86,677)" d="m0 0 1 2-10 22-10 24-12 28-3 3 1-5 13-31 12-28 7-14z" fill="#FEFEFE"/>
<path transform="translate(1169,677)" d="m0 0h1l1 63 1 13-3-1-6-12-12-15 1-2 8 9 7 9v2h2l-1-5v-16z" fill="#FEFEFE"/>
<path transform="translate(1391,568)" d="m0 0h1v7l-1 1h-36v35h-2v-36l1-5 2 1-1 3h36z" fill="#FEFEFE"/>
<path transform="translate(977,847)" d="m0 0h6v26l4 1-1-2v-25h8l-4 2-1 19v6l-1 1h-6l-2-3v-24z" fill="#FEFEFE"/>
<path transform="translate(489,676)" d="m0 0h5l5 8 12 28 8 19 9 21-1 3-5-10-22-52-7-15z" fill="#FEFEFE"/>
<path transform="translate(354,532)" d="m0 0 3 1 6 12 24 56 4 9v3l-2-1-10-23-23-53z" fill="#FEFEFE"/>
<path transform="translate(679,845)" d="m0 0 4 2 13 15 7 8 2 1-1-8v-17h3v28l-6-2-10-11-9-11-1 1-2 3z" fill="#C09B74"/>
<path transform="translate(96,677)" d="m0 0 3 3 13 30 11 26 7 16-1 3-6-12-11-26-16-38z" fill="#FEFEFE"/>
<path transform="translate(1045,844)" d="m0 0h14v2l5 2 4 5v12l-3 5h-2l-1 3-4 1 6-8 1-2v-8l-3-5-2-2-5-1h-9l-5 5h-2l2-4z" fill="#C7A684"/>
<path transform="translate(462,845)" d="m0 0 3 1 8 17 4 8v3l-3-1-5-11-4-10-1-2h-2l-5 11-6 12-3 1 2-6 10-21z" fill="#C3906D"/>
<path transform="translate(1067,577)" d="m0 0h1l1 7v14l-3 5-8 4-6 1h-13l-9-3 3-1 4 1h17l9-3 3-3 1-19h-17v-2z" fill="#FEFEFE"/>
<path transform="translate(940,844)" d="m0 0h6l3 4 8 20 2 4v3l-4-1h2l-8-17-5-10-3-2-2 6-9 20-3 3 1-5 9-21z" fill="#FEFEFE"/>
<path transform="translate(941,845)" d="m0 0 4 2 12 24v3h-3l-7-18-4-7-4 6-7 19-4 1 1-4 10-23z" fill="#C19C76"/>
<path transform="translate(1209,736)" d="m0 0 4 4 7 8 6 4 12 4h17l12-3 7-4 2-4v5l-6 5-10 3-7 1h-11l-13-3-9-5-5-4-6-9z" fill="#FEFEFE"/>
<path transform="translate(297,678)" d="m0 0h1v6l-8 1h-17v54h-1l-1-19v-36l1-1h25z" fill="#FEFEFE"/>
<path transform="translate(292,847)" d="m0 0 2 1-1 9h14v4l-13 2-1 8 12 1v1h-12l-2-1v-13l-1-10z" fill="#FDFCFB"/>
<path transform="translate(341,674)" d="m0 0h12l15 4 4 4-1 4-2-4-10-4-5-1h-13l-9 3-6 5-3 8v7l2 7-3-3-1-3v-10l3-7 5-5 8-4z" fill="#FEFEFE"/>
<path transform="translate(1111,682)" d="m0 0 3 3 4 7 13 16 3 4-1 2-11-13-8-10-1 60h-1z" fill="#FEFEFE"/>
<path transform="translate(553,844)" d="m0 0h16l2 1v5h-3v-4h-14l-6 3-3 6v11l3 4v2l7 2h14v-2l-2-1 3-1 1 3-3 3h-16l-6-4-4-5v-12l5-8z" fill="#FEFEFE"/>
<path transform="translate(461,844)" d="m0 0h5l4 8 8 18-1 3-7-14-5-11v-2l-4 1-12 25v3l-3-1 2-6 9-20z" fill="#FEFEFE"/>
<path transform="translate(754,844)" d="m0 0h21v3h-2v-2l-18 1v28l5-1v-1h15l1 3h-22l-1-2v-28z" fill="#FEFEFE"/>
<path transform="translate(827,674)" d="m0 0h13l12 3 6 3 1 4-10-5-7-2h-16l-10 5-4 5-2 7v10l-2-3v-11l3-6 8-7z" fill="#FEFEFE"/>
<path transform="translate(35,530)" d="m0 0h10l13 3 6 4-1 3-6-4-11-3h-12l-11 4-5 6-2 5v12l-2-2-1-8 3-9 9-8z" fill="#FEFEFE"/>
<path transform="translate(899,843)" d="m0 0 11 1 3 5v2l-10-3h-8l-7 6-1 3h-2l2-9 6-4z" fill="#CC9A7D"/>
<path transform="translate(587,844)" d="m0 0h20l1 3h-2v-2l-17 1 1 27h6v-1h12l1 3h-21l-1-1z" fill="#FEFEFE"/>
<path transform="translate(893,736)" d="m0 0 4 4 7 8 6 4 12 4h17l12-3 8-4-1 3-7 4-15 3h-10l-13-3-9-5-5-4-6-9z" fill="#FEFEFE"/>
<path transform="translate(466,728)" d="m0 0h1l-1 7-7 16-3 5-4 1v-4l8-18 2-1 2 1z" fill="#CD6E58"/>
<path transform="translate(677,844)" d="m0 0 4 1h-2v9h2v20l-4 1-1-1v-14z" fill="#FEFEFE"/>
<path transform="translate(34,532)" d="m0 0h12l13 4 5 4-1 4-10-5-5-1v-2h-10v-1l-5-1z" fill="#D75349"/>
<path transform="translate(364,844)" d="m0 0h20v3l-1-2-18 2 1 26 17 1 1-2 1 3h-21l-1-2v-28z" fill="#FEFEFE"/>
<path transform="translate(211,708)" d="m0 0v3l-8 7-5 1 5 10 17 26v2h-2l-4-7-15-23-4-6-1-3 11-4z" fill="#FEFEFE"/>
<path transform="translate(905,739)" d="m0 0 11 7 5 2h23l10-4h5l-4 3-12 4h-21l-10-4-7-6z" fill="#FEFEFE"/>
<path transform="translate(429,533)" d="m0 0 4 2 21 32 1 2 3-1 5-7 1 2-7 12h-2l-6-12-7-10-8-12-5-7z" fill="#FEFEFE"/>
<path transform="translate(328,846)" d="m0 0 2 4v22h17v3h-20v-28z" fill="#C09B74"/>
<path transform="translate(620,677)" d="m0 0h1l1 65 1 4v7l-3-3-4-7 1-2 2 2z" fill="#FEFEFE"/>
<path transform="translate(425,536)" d="m0 0 4 4 5 9 7 11 11 16 3 5-1 2-11-16-14-20-3-2z" fill="#FEFEFE"/>
<path transform="translate(366,848)" d="m0 0h2l1 9h13v4l-5 1h-9v8h-1l-1-9v-2z" fill="#F1E9E1"/>
<path transform="translate(550,850)" d="m0 0v3l-1 3v9l3 5 7 2h10v2l-3 1h-11l-7-3-2-8v-8l3-5z" fill="#E4D5C5"/>
<path transform="translate(288,844)" d="m0 0h20v4l-1-2h-18v27l-2 1v-29z" fill="#FEFEFE"/>
<path transform="translate(1311,740)" d="m0 0h1v9h42l-2 2h-41l-1-3z" fill="#FEFEFE"/>
<path transform="translate(1059,845)" d="m0 0 5 1 5 5 2 4v9l-3 6-6 5-2 1h-6l8-4 1-2h2l2-5v-12l-4-5z" fill="#FEFEFE"/>
<path transform="translate(653,845)" d="m0 0h3v27l-2 2-1-6z" fill="#FEFEFE"/>
<path transform="translate(165,719)" d="m0 0 22 1v3l-1-1h-20v34h-2v-36z" fill="#FEFEFE"/>
<path transform="translate(1043,845)" d="m0 0 2 1-7 8-1 8 3 7 4 4 10 3v1h-7l-7-4-4-5-2-5 1-8 5-8z" fill="#FAF8F6"/>
<path transform="translate(591,860)" d="m0 0h10v2h-9v9l15 2v1h-17l-1-1v-8z" fill="#C19D77"/>
<path transform="translate(495,845)" d="m0 0h5l-2 2-1 25-1 2 4 1h-5l-1-3z" fill="#FEFEFE"/>
<path transform="translate(886,850)" d="m0 0 1 2-2 5v8l4 6 7 3 12 1v1h-15l-6-4-4-5-1-3v-7l3-6z" fill="#FEFEFE"/>
<path transform="translate(1015,846)" d="m0 0h2l1 14v14h-3z" fill="#C09B74"/>
<path transform="translate(480,548)" d="m0 0v3l-9 13-13 19-1-2 7-11 10-15z" fill="#FEFEFE"/>
<path transform="translate(656,845)" d="m0 0 3 1v29l-4-1z" fill="#C09C76"/>
<path transform="translate(405,848)" d="m0 0v3l-3 7 1 8 6 7 7 2v1h-6l-7-5-3-5-1-7 3-8z" fill="#FEFEFE"/>
<path transform="translate(271,535)" d="m0 0 4 1 6 5 4 8v11l-2 4-1-2 1-7-3-10-7-8z" fill="#FEFEFE"/>
<path transform="translate(419,860)" d="m0 0h11l1 1v10l-6 5h-6v-1l7-2 2-3 1-8h-2v2l-6-1-2-1z" fill="#F8F5F1"/>
<path transform="translate(637,600)" d="m0 0h6v2l-18 5h-18l-3-2h18l12-3z" fill="#FEFEFE"/>
<path transform="translate(464,848)" d="m0 0h2l9 20 2 3v3l-3-1-5-11-4-10z" fill="#C09B74"/>
<path transform="translate(365,863)" d="m0 0h2v7l3 1 13 1v2h-17l-1-1z" fill="#C8A887"/>
<path transform="translate(758,847)" d="m0 0 2 1-1 9h14v4l-3-1-13-1v-11z" fill="#FEFEFE"/>
<path transform="translate(143,535)" d="m0 0 5 2 7 8 2 7-1 9-3 3 1-5v-7l-4-10-7-6z" fill="#FEFEFE"/>
<path transform="translate(70,722)" d="m0 0 2 1-2 8-3 5-1-4-2 1 1-6 3-4z" fill="#C87F62"/>
<path transform="translate(1046,847)" d="m0 0 3 1-5 4-2 4v9l3 6-4-2-3-7 1-7z" fill="#FEFEFE"/>
<path transform="translate(498,848)" d="m0 0 3 1-2 1 1 24h-4l1-21z" fill="#C09B74"/>
<path transform="translate(426,861)" d="m0 0 4 1-2 10-4 3-10-1v-1l9-2 3-3z" fill="#D7BFA7"/>
<path transform="translate(591,848)" d="m0 0h1l1 8 2 1h11v4l-6-2h-10z" fill="#FEFEFE"/>
<path transform="translate(484,534)" d="m0 0h2l-1 5-6 10-3 2 2-5 1-2-3 2 2-5z" fill="#DA453F"/>
<path transform="translate(194,732)" d="m0 0 4 4 10 15 4 5-4-1-8-11-6-10z" fill="#FEFEFE"/>
<path transform="translate(899,843)" d="m0 0 11 1 3 5v2l-4-2h2l-3-3h-14l-7 4 2-4 4-2z" fill="#FEFEFE"/>
<path transform="translate(797,847)" d="m0 0 3 1h-2l-1 22-2-3v-18z" fill="#FEFEFE"/>
<path transform="translate(360,679)" d="m0 0 7 1 4 3v4l-4-1-7-4z" fill="#D4594C"/>
<path transform="translate(755,862)" d="m0 0h2v10l16 1v1h-18z" fill="#C09B74"/>
<path transform="translate(1090,854)" d="m0 0h1l1 20h-3v-19z" fill="#C09B74"/>
<path transform="translate(895,847)" d="m0 0 3 1-6 4-3 5v7l1 4-3-2-1-9 3-5z" fill="#FEFEFE"/>
<path transform="translate(281,564)" d="m0 0v3l-8 7-4 2-1 4-2-3v-3l10-5z" fill="#FEFEFE"/>
<path transform="translate(935,860)" d="m0 0 1 4-4 10-4 1 1-4 5-10z" fill="#C4A27E"/>
<path transform="translate(680,854)" d="m0 0h1v20h-3v-8h2l-1-9z" fill="#C09B74"/>
<path transform="translate(941,845)" d="m0 0 4 2-3 1-2 5-3 7h-2l1-5z" fill="#C38E6C"/>
<path transform="translate(460,743)" d="m0 0 1 4-5 9-4 1v-4l2-1 2 1 3-9z" fill="#DC4642"/>
<path transform="translate(477,541)" d="m0 0v3l-8 12-5 5 2-5 10-14z" fill="#FEFEFE"/>
<path transform="translate(757,860)" d="m0 0h11l1 2h-11l1 8 1 2h-3l-1-11z" fill="#FEFEFE"/>
<path transform="translate(57,748)" d="m0 0 3 1-1 6-2 2h-4l2-6z" fill="#D4584B"/>
<path transform="translate(322,599)" d="m0 0 1 4-5 9-5 1 1-5 3 1z" fill="#D55449"/>
<path transform="translate(546,853)" d="m0 0 1 3v8l1 4h-3l-1-2v-11z" fill="#C19771"/>
<path transform="translate(591,860)" d="m0 0h10v2h-9v8h-1l-1-9z" fill="#FEFEFE"/>
<path transform="translate(340,872)" d="m0 0h7v3h-20v-1l13-1z" fill="#FEFEFE"/>
<path transform="translate(297,845)" d="m0 0 10 1v1l-15 1-3 3v-5z" fill="#C09B74"/>
<path transform="translate(486,532)" d="m0 0h5l-4 3-4 1-4 5-2-1 5-7z" fill="#F3EDE7"/>
<path transform="translate(547,868)" d="m0 0 5 2 7 2-4 2-5-1-3-3z" fill="#D3B99E"/>
<path transform="translate(911,870)" d="m0 0 1 3-2 2h-8l2-1v-2z" fill="#DFCCB9"/>
<path transform="translate(307,872)" d="m0 0h3l-1 3h-21v-1h19z" fill="#FEFEFE"/>
<path transform="translate(430,865)" d="m0 0h1v6l-6 5h-6v-1l7-2z" fill="#FEFEFE"/>
</svg>
